<svg width="20" height="16" viewBox="0 0 20 16" fill="none" xmlns="http://www.w3.org/2000/svg">
    <path d="M15 6C15 5.70833 14.9062 5.46875 14.7188 5.28125C14.5312 5.09375 14.2917 5 14 5H2C1.70833 5 1.46875 5.09375 1.28125 5.28125C1.09375 5.46875 1 5.70833 1 6V14C1 14.2917 1.09375 14.5312 1.28125 14.7188C1.46875 14.9062 1.70833 15 2 15H11.25C11.5625 15.375 11.9271 15.7083 12.3438 16H2C1.4375 15.9792 0.96875 15.7812 0.59375 15.4062C0.21875 15.0312 0.0208333 14.5625 0 14V6C0.0208333 5.4375 0.21875 4.96875 0.59375 4.59375C0.96875 4.21875 1.4375 4.02083 2 4H14C14.5625 4.02083 15.0312 4.21875 15.4062 4.59375C15.7812 4.96875 15.9792 5.4375 16 6V6.03125C15.8333 6.01042 15.6667 6 15.5 6C15.3333 6 15.1667 6.01042 15 6.03125V6ZM14 2C14.3125 2.02083 14.4792 2.1875 14.5 2.5C14.4792 2.8125 14.3125 2.97917 14 3H2C1.6875 2.97917 1.52083 2.8125 1.5 2.5C1.52083 2.1875 1.6875 2.02083 2 2H14ZM12.5 0C12.8125 0.0208333 12.9792 0.1875 13 0.5C12.9792 0.8125 12.8125 0.979167 12.5 1H3.5C3.1875 0.979167 3.02083 0.8125 3 0.5C3.02083 0.1875 3.1875 0.0208333 3.5 0H12.5ZM12 11.5C12 12.125 12.1562 12.7083 12.4688 13.25C12.7812 13.7917 13.2083 14.2188 13.75 14.5312C14.2917 14.8438 14.875 15 15.5 15C16.125 15 16.7083 14.8438 17.25 14.5312C17.7917 14.2188 18.2188 13.7917 18.5312 13.25C18.8438 12.7083 19 12.125 19 11.5C19 10.875 18.8438 10.2917 18.5312 9.75C18.2188 9.20833 17.7917 8.78125 17.25 8.46875C16.7083 8.15625 16.125 8 15.5 8C14.875 8 14.2917 8.15625 13.75 8.46875C13.2083 8.78125 12.7812 9.20833 12.4688 9.75C12.1562 10.2917 12 10.875 12 11.5ZM20 11.5C20 12.3125 19.8021 13.0625 19.4062 13.75C19.0104 14.4375 18.4583 14.9896 17.75 15.4062C17.0417 15.8021 16.2917 16 15.5 16C14.7083 16 13.9583 15.8021 13.25 15.4062C12.5417 14.9896 11.9896 14.4375 11.5938 13.75C11.1979 13.0625 11 12.3125 11 11.5C11 10.6875 11.1979 9.9375 11.5938 9.25C11.9896 8.5625 12.5417 8.01042 13.25 7.59375C13.9583 7.19792 14.7083 7 15.5 7C16.2917 7 17.0417 7.19792 17.75 7.59375C18.4583 8.01042 19.0104 8.5625 19.4062 9.25C19.8021 9.9375 20 10.6875 20 11.5ZM16 9.5V11H17.5C17.8125 11.0208 17.9792 11.1875 18 11.5C17.9792 11.8125 17.8125 11.9792 17.5 12H16V13.5C15.9792 13.8125 15.8125 13.9792 15.5 14C15.1875 13.9792 15.0208 13.8125 15 13.5V12H13.5C13.1875 11.9792 13.0208 11.8125 13 11.5C13.0208 11.1875 13.1875 11.0208 13.5 11H15V9.5C15.0208 9.1875 15.1875 9.02083 15.5 9C15.8125 9.02083 15.9792 9.1875 16 9.5Z" fill="#2F3941"/>
    </svg>
    