<svg width="22" height="15" viewBox="0 0 22 15" fill="none" xmlns="http://www.w3.org/2000/svg">
    <path
        d="M2.5999 0.0999994H19.3999C20.0749 0.124999 20.6374 0.362499 21.0874 0.812499C21.5374 1.2625 21.7749 1.825 21.7999 2.5V4.975C21.7749 5.275 21.6249 5.475 21.3499 5.575C20.9499 5.675 20.6249 5.875 20.3749 6.175C20.1249 6.5 19.9999 6.875 19.9999 7.3C19.9999 7.725 20.1249 8.1 20.3749 8.425C20.6249 8.725 20.9499 8.9375 21.3499 9.0625C21.6249 9.1375 21.7749 9.325 21.7999 9.625V12.1C21.7749 12.775 21.5374 13.3375 21.0874 13.7875C20.6374 14.2375 20.0749 14.475 19.3999 14.5H2.5999C1.9249 14.475 1.3624 14.2375 0.912403 13.7875C0.462403 13.3375 0.224903 12.775 0.199903 12.1V9.625C0.224903 9.325 0.374903 9.1375 0.649903 9.0625C1.0499 8.9375 1.3749 8.725 1.6249 8.425C1.8749 8.1 1.9999 7.725 1.9999 7.3C1.9999 6.875 1.8749 6.5 1.6249 6.175C1.3749 5.875 1.0499 5.675 0.649903 5.575C0.374903 5.475 0.224903 5.275 0.199903 4.975V2.5C0.224903 1.825 0.462403 1.2625 0.912403 0.812499C1.3624 0.362499 1.9249 0.124999 2.5999 0.0999994ZM1.3999 2.5V4.5625C1.9499 4.7875 2.3874 5.15 2.7124 5.65C3.0374 6.125 3.1999 6.675 3.1999 7.3C3.1999 7.925 3.0374 8.475 2.7124 8.95C2.3874 9.45 1.9499 9.8125 1.3999 10.0375V12.1C1.3999 12.45 1.5124 12.7375 1.7374 12.9625C1.9624 13.1875 2.2499 13.3 2.5999 13.3H19.3999C19.7499 13.3 20.0374 13.1875 20.2624 12.9625C20.4874 12.7375 20.5999 12.45 20.5999 12.1V10.0375C20.0499 9.8125 19.6124 9.45 19.2874 8.95C18.9624 8.475 18.7999 7.925 18.7999 7.3C18.7999 6.675 18.9624 6.125 19.2874 5.65C19.6124 5.15 20.0499 4.7875 20.5999 4.5625V2.5C20.5999 2.15 20.4874 1.8625 20.2624 1.6375C20.0374 1.4125 19.7499 1.3 19.3999 1.3H2.5999C2.2499 1.3 1.9624 1.4125 1.7374 1.6375C1.5124 1.8625 1.3999 2.15 1.3999 2.5ZM6.1999 4.9V9.7H15.7999V4.9H6.1999ZM4.9999 4.9C4.9999 4.55 5.1124 4.2625 5.3374 4.0375C5.5624 3.8125 5.8499 3.7 6.1999 3.7H15.7999C16.1499 3.7 16.4374 3.8125 16.6624 4.0375C16.8874 4.2625 16.9999 4.55 16.9999 4.9V9.7C16.9999 10.05 16.8874 10.3375 16.6624 10.5625C16.4374 10.7875 16.1499 10.9 15.7999 10.9H6.1999C5.8499 10.9 5.5624 10.7875 5.3374 10.5625C5.1124 10.3375 4.9999 10.05 4.9999 9.7V4.9Z"
        fill="#2F3941" />
</svg>
    