<svg width="18" height="20" viewBox="0 0 18 20" fill="none" xmlns="http://www.w3.org/2000/svg">
    <path
        d="M16.1999 3.7C16.1999 3.675 16.1249 3.5875 15.9749 3.4375C15.6999 3.2125 15.2249 2.975 14.5499 2.725C13.1249 2.2 11.2749 1.925 8.9999 1.9C6.7249 1.925 4.8749 2.2 3.4499 2.725C2.7749 2.975 2.2999 3.2125 2.0249 3.4375C1.8749 3.5875 1.7999 3.675 1.7999 3.7V7.525C2.3499 7.925 3.2124 8.275 4.3874 8.575C5.7124 8.925 7.2499 9.1 8.9999 9.1C10.7499 9.1 12.2874 8.925 13.6124 8.575C14.7874 8.275 15.6499 7.925 16.1999 7.525V3.7ZM16.1999 8.95C15.5499 9.275 14.7874 9.55 13.9124 9.775C12.4624 10.125 10.8249 10.3 8.9999 10.3C7.1749 10.3 5.5374 10.1125 4.0874 9.7375C3.2124 9.5375 2.4499 9.275 1.7999 8.95V12.325C2.3499 12.75 3.2124 13.1 4.3874 13.375C5.7124 13.725 7.2499 13.9 8.9999 13.9C10.7499 13.9 12.2874 13.725 13.6124 13.375C14.7874 13.075 15.6499 12.725 16.1999 12.325V8.95ZM1.7999 16.9C1.7999 16.925 1.8749 17.0125 2.0249 17.1625C2.2999 17.3875 2.7749 17.625 3.4499 17.875C4.8749 18.4 6.7249 18.675 8.9999 18.7C11.2749 18.675 13.1249 18.4 14.5499 17.875C15.2249 17.625 15.6999 17.3875 15.9749 17.1625C16.1249 17.0125 16.1999 16.925 16.1999 16.9V13.75C15.5499 14.075 14.7874 14.35 13.9124 14.575C12.4624 14.925 10.8249 15.1 8.9999 15.1C7.1749 15.1 5.5374 14.925 4.0874 14.575C3.2124 14.35 2.4499 14.075 1.7999 13.75V16.9ZM1.7999 3.7375C1.7999 3.7125 1.7999 3.7125 1.7999 3.7375V3.7375ZM17.3999 16.9C17.3499 17.75 16.5249 18.4625 14.9249 19.0375C13.3499 19.5875 11.3749 19.875 8.9999 19.9C6.6249 19.875 4.6499 19.5875 3.0749 19.0375C1.4749 18.4625 0.649902 17.75 0.599902 16.9V3.7C0.649902 2.85 1.4749 2.1375 3.0749 1.5625C4.6499 1.0125 6.6249 0.724999 8.9999 0.699999C11.3749 0.724999 13.3499 1.0125 14.9249 1.5625C16.5249 2.1375 17.3499 2.85 17.3999 3.7V16.9Z"
        fill="#2F3941" />
</svg>
    