<svg width="30" height="30" viewBox="0 0 30 30" fill="none" xmlns="http://www.w3.org/2000/svg">
    <path
        d="M29.6363 3.54629C29.4634 1.67784 27.9227 0.198262 26.0528 0.09904C23.5559 -0.0330133 6.28523 -0.0330133 3.78616 0.09904C1.91836 0.198262 0.377716 1.67784 0.204051 3.54775C-0.600141 12.3231 0.975096 19.095 4.88795 23.6738C9.09555 28.5999 14.472 29.0588 14.7855 29.0814L14.9029 29.0909L15.047 29.0844C15.2452 29.0705 19.3519 28.7502 23.2064 25.4299L23.46 25.2066C23.9896 24.7295 24.4876 24.2177 24.951 23.6745C28.866 19.1001 30.4412 12.3296 29.6363 3.54629ZM2.10068 9.19246C2.04153 7.374 2.09834 5.55359 2.27074 3.74254C2.31261 3.31729 2.5125 2.92403 2.82993 2.64234L13.1151 9.70827L8.15591 13.1373L2.10068 9.19246ZM6.296 14.4235L3.29544 16.4977C2.81224 14.9764 2.4789 13.4104 2.30028 11.8226L6.296 14.4235ZM14.962 10.9763L19.8232 14.3155L14.8805 17.5096L10.0525 14.3681L14.962 10.9763ZM16.8045 9.70318L27.014 2.64453C27.3292 2.92522 27.5279 3.31612 27.5704 3.73889C27.7439 5.55109 27.8016 7.37273 27.7433 9.19246L21.7299 13.0818L16.8045 9.70318ZM27.5415 11.819C27.3659 13.3791 27.0415 14.9184 26.573 16.4153L23.5955 14.3725L27.5415 11.819ZM24.051 2.14915L14.9584 8.43445L5.80673 2.14842C7.97214 2.11559 11.4455 2.0988 14.9195 2.0988C18.3935 2.0988 21.8863 2.11559 24.051 2.14915ZM4.0708 18.5062L8.19191 15.6609L12.9558 18.7609L6.83073 22.7225C6.70532 22.5867 6.58068 22.4474 6.45745 22.303C5.48809 21.1584 4.6845 19.88 4.0708 18.5062ZM14.9368 26.9861H14.931C14.7703 26.9751 11.5903 26.7264 8.40955 24.1911L14.877 20.0084L21.3754 24.24C18.3214 26.6454 15.2841 26.9576 14.9368 26.9861ZM23.3837 22.3015C23.2448 22.4644 23.1048 22.6213 22.9635 22.772L16.8017 18.7594L21.6902 15.5996L25.8063 18.4267C25.1875 19.8298 24.3715 21.1349 23.3837 22.3015Z"
        fill="#161A3D" />
</svg>
    