<svg width="24" height="20" viewBox="0 0 24 20" fill="none" xmlns="http://www.w3.org/2000/svg">
    <path d="M7.6124 11.5H13.1999C13.5499 11.5 13.8374 11.3875 14.0624 11.1625C14.2874 10.9375 14.3999 10.65 14.3999 10.3V3.1C14.3999 2.75 14.2874 2.4625 14.0624 2.2375C13.8374 2.0125 13.5499 1.9 13.1999 1.9H2.3999C2.0499 1.9 1.7624 2.0125 1.5374 2.2375C1.3124 2.4625 1.1999 2.75 1.1999 3.1V10.3C1.1999 10.65 1.3124 10.9375 1.5374 11.1625C1.7624 11.3875 2.0499 11.5 2.3999 11.5H3.5999C3.9499 11.5 4.2374 11.6125 4.4624 11.8375C4.6874 12.0625 4.7999 12.35 4.7999 12.7V13.3L6.8999 11.725C7.0999 11.575 7.3374 11.5 7.6124 11.5ZM13.1999 12.7H7.6124L4.5749 14.9875C4.3749 15.1125 4.1624 15.125 3.9374 15.025C3.7124 14.925 3.5999 14.75 3.5999 14.5V13.9V12.7H2.3999C1.7249 12.675 1.1624 12.4375 0.712403 11.9875C0.262403 11.5375 0.0249027 10.975 -9.72748e-05 10.3V3.1C0.0249027 2.425 0.262403 1.8625 0.712403 1.4125C1.1624 0.962499 1.7249 0.724999 2.3999 0.699999H13.1999C13.8749 0.724999 14.4374 0.962499 14.8874 1.4125C15.3374 1.8625 15.5749 2.425 15.5999 3.1V10.3C15.5749 10.975 15.3374 11.5375 14.8874 11.9875C14.4374 12.4375 13.8749 12.675 13.1999 12.7ZM11.9999 17.5C11.3249 17.475 10.7624 17.2375 10.3124 16.7875C9.8624 16.3375 9.6249 15.775 9.5999 15.1V13.9H10.7999V15.1C10.7999 15.45 10.9124 15.7375 11.1374 15.9625C11.3624 16.1875 11.6499 16.3 11.9999 16.3H16.3874C16.6624 16.3 16.9124 16.375 17.1374 16.525L19.1999 18.1V17.5C19.1999 17.15 19.3124 16.8625 19.5374 16.6375C19.7624 16.4125 20.0499 16.3 20.3999 16.3H21.5999C21.9499 16.3 22.2374 16.1875 22.4624 15.9625C22.6874 15.7375 22.7999 15.45 22.7999 15.1V7.9C22.7999 7.55 22.6874 7.2625 22.4624 7.0375C22.2374 6.8125 21.9499 6.7 21.5999 6.7H16.7999V5.5H21.5999C22.2749 5.525 22.8374 5.7625 23.2874 6.2125C23.7374 6.6625 23.9749 7.225 23.9999 7.9V15.1C23.9749 15.775 23.7374 16.3375 23.2874 16.7875C22.8374 17.2375 22.2749 17.475 21.5999 17.5H20.3999V18.7V19.3C20.3999 19.55 20.2874 19.725 20.0624 19.825C19.8374 19.925 19.6249 19.9125 19.4249 19.7875L16.3874 17.5H11.9999Z" fill="#2F3941"/>
    </svg>
    