<svg width="18" height="20" viewBox="0 0 18 20" fill="none" xmlns="http://www.w3.org/2000/svg">
    <path d="M8.3999 1.3C8.4249 0.924999 8.6249 0.724999 8.9999 0.699999C9.3749 0.724999 9.5749 0.924999 9.5999 1.3V1.9375C11.1499 2.1125 12.4249 2.75 13.4249 3.85C14.4499 4.95 14.9749 6.3 14.9999 7.9V8.9875C15.0249 10.6875 15.6249 12.15 16.7999 13.375L16.9124 13.4875C17.2374 13.8125 17.3999 14.2 17.3999 14.65C17.3999 15.125 17.2374 15.5125 16.9124 15.8125C16.6124 16.1375 16.2249 16.3 15.7499 16.3H2.2499C1.7749 16.3 1.3874 16.1375 1.0874 15.8125C0.762402 15.5125 0.599902 15.125 0.599902 14.65C0.599902 14.2 0.762402 13.8 1.0874 13.45L1.1999 13.375C2.3749 12.15 2.9749 10.6875 2.9999 8.9875V7.9C3.0249 6.3 3.5499 4.95 4.5749 3.85C5.5749 2.75 6.8499 2.1125 8.3999 1.9375V1.3ZM8.9999 3.1C7.6499 3.125 6.5124 3.5875 5.5874 4.4875C4.6874 5.4125 4.2249 6.55 4.1999 7.9V8.9875C4.1749 11.0125 3.4499 12.75 2.0249 14.2L1.9499 14.3125C1.8499 14.4125 1.7999 14.525 1.7999 14.65C1.8249 14.925 1.9749 15.075 2.2499 15.1H15.7499C16.0249 15.075 16.1749 14.925 16.1999 14.65C16.1999 14.525 16.1499 14.4125 16.0499 14.3125L15.9749 14.2C14.5499 12.75 13.8249 11.0125 13.7999 8.9875V7.9C13.7749 6.55 13.2999 5.4125 12.3749 4.4875C11.4749 3.5875 10.3499 3.125 8.9999 3.1ZM7.8749 17.9125C8.0749 18.4125 8.4499 18.675 8.9999 18.7C9.5499 18.675 9.9249 18.4125 10.1249 17.9125C10.2749 17.5625 10.5374 17.4375 10.9124 17.5375C11.2374 17.6875 11.3499 17.9375 11.2499 18.2875C11.0749 18.7625 10.7874 19.15 10.3874 19.45C9.9874 19.75 9.5249 19.9 8.9999 19.9C8.4749 19.9 8.0124 19.75 7.6124 19.45C7.2124 19.15 6.9249 18.7625 6.7499 18.2875C6.6499 17.9375 6.7624 17.6875 7.0874 17.5375C7.4624 17.4375 7.7249 17.5625 7.8749 17.9125Z" fill="#2F3941"/>
    </svg>
    