<svg width="20" height="20" viewBox="0 0 20 20" fill="none" xmlns="http://www.w3.org/2000/svg">
    <path d="M17.1999 1.9H11.1999C10.8499 1.9 10.5624 2.0125 10.3374 2.2375C10.1124 2.4625 9.9999 2.75 9.9999 3.1V17.5C9.9999 17.85 10.1124 18.1375 10.3374 18.3625C10.5624 18.5875 10.8499 18.7 11.1999 18.7H17.1999C17.5499 18.7 17.8374 18.5875 18.0624 18.3625C18.2874 18.1375 18.3999 17.85 18.3999 17.5V3.1C18.3999 2.75 18.2874 2.4625 18.0624 2.2375C17.8374 2.0125 17.5499 1.9 17.1999 1.9ZM11.1999 0.699999H17.1999C17.8749 0.724999 18.4374 0.962499 18.8874 1.4125C19.3374 1.8625 19.5749 2.425 19.5999 3.1V17.5C19.5749 18.175 19.3374 18.7375 18.8874 19.1875C18.4374 19.6375 17.8749 19.875 17.1999 19.9H11.1999C10.5249 19.875 9.9624 19.6375 9.5124 19.1875C9.0624 18.7375 8.8249 18.175 8.7999 17.5V3.1C8.8249 2.425 9.0624 1.8625 9.5124 1.4125C9.9624 0.962499 10.5249 0.724999 11.1999 0.699999ZM7.5999 5.5V6.7H2.7999C2.4499 6.7 2.1624 6.8125 1.9374 7.0375C1.7124 7.2625 1.5999 7.55 1.5999 7.9V17.5C1.5999 17.85 1.7124 18.1375 1.9374 18.3625C2.1624 18.5875 2.4499 18.7 2.7999 18.7H7.7874C7.9624 19.15 8.1999 19.55 8.4999 19.9H2.7999C2.1249 19.875 1.5624 19.6375 1.1124 19.1875C0.662402 18.7375 0.424902 18.175 0.399902 17.5V7.9C0.424902 7.225 0.662402 6.6625 1.1124 6.2125C1.5624 5.7625 2.1249 5.525 2.7999 5.5H7.5999ZM3.6999 12.7H5.4999C6.0499 12.75 6.3499 13.05 6.3999 13.6V15.4C6.3499 15.95 6.0499 16.25 5.4999 16.3H3.6999C3.1499 16.25 2.8499 15.95 2.7999 15.4V13.6C2.8499 13.05 3.1499 12.75 3.6999 12.7ZM3.9999 15.1H5.1999V13.9H3.9999V15.1ZM12.3999 15.4V13.6C12.4499 13.05 12.7499 12.75 13.2999 12.7H15.0999C15.6499 12.75 15.9499 13.05 15.9999 13.6V15.4C15.9499 15.95 15.6499 16.25 15.0999 16.3H13.2999C12.7499 16.25 12.4499 15.95 12.3999 15.4ZM13.5999 15.1H14.7999V13.9H13.5999V15.1ZM3.6999 7.9H5.4999C6.0499 7.95 6.3499 8.25 6.3999 8.8V10.6C6.3499 11.15 6.0499 11.45 5.4999 11.5H3.6999C3.1499 11.45 2.8499 11.15 2.7999 10.6V8.8C2.8499 8.25 3.1499 7.95 3.6999 7.9ZM3.9999 10.3H5.1999V9.1H3.9999V10.3ZM12.3999 4C12.4499 3.45 12.7499 3.15 13.2999 3.1H15.0999C15.6499 3.15 15.9499 3.45 15.9999 4V5.8C15.9499 6.35 15.6499 6.65 15.0999 6.7H13.2999C12.7499 6.65 12.4499 6.35 12.3999 5.8V4ZM13.5999 4.3V5.5H14.7999V4.3H13.5999ZM13.2999 11.5C12.7499 11.45 12.4499 11.15 12.3999 10.6V8.8C12.4499 8.25 12.7499 7.95 13.2999 7.9H15.0999C15.6499 7.95 15.9499 8.25 15.9999 8.8V10.6C15.9499 11.15 15.6499 11.45 15.0999 11.5H13.2999ZM13.5999 9.1V10.3H14.7999V9.1H13.5999Z" fill="#2F3941"/>
    </svg>
    