<svg width="20" height="19" viewBox="0 0 20 19" fill="none" xmlns="http://www.w3.org/2000/svg">
<path d="M6.3999 2.5V4.3H13.5999V2.5C13.5749 2.125 13.3749 1.925 12.9999 1.9H6.9999C6.6249 1.925 6.4249 2.125 6.3999 2.5ZM5.1999 4.3V2.5C5.2249 2 5.3999 1.575 5.7249 1.225C6.0749 0.899999 6.4999 0.724999 6.9999 0.699999H12.9999C13.4999 0.724999 13.9249 0.899999 14.2749 1.225C14.5999 1.575 14.7749 2 14.7999 2.5V4.3H17.1999C17.8749 4.325 18.4374 4.5625 18.8874 5.0125C19.3374 5.4625 19.5749 6.025 19.5999 6.7V16.3C19.5749 16.975 19.3374 17.5375 18.8874 17.9875C18.4374 18.4375 17.8749 18.675 17.1999 18.7H2.7999C2.1249 18.675 1.5624 18.4375 1.1124 17.9875C0.662402 17.5375 0.424902 16.975 0.399902 16.3V6.7C0.424902 6.025 0.662402 5.4625 1.1124 5.0125C1.5624 4.5625 2.1249 4.325 2.7999 4.3H5.1999ZM14.1999 5.5H5.7999H2.7999C2.4499 5.5 2.1624 5.6125 1.9374 5.8375C1.7124 6.0625 1.5999 6.35 1.5999 6.7V10.3H6.9999H8.1999H11.7999H12.9999H18.3999V6.7C18.3999 6.35 18.2874 6.0625 18.0624 5.8375C17.8374 5.6125 17.5499 5.5 17.1999 5.5H14.1999ZM18.3999 11.5H12.9999V13.3C12.9999 13.65 12.8874 13.9375 12.6624 14.1625C12.4374 14.3875 12.1499 14.5 11.7999 14.5H8.1999C7.8499 14.5 7.5624 14.3875 7.3374 14.1625C7.1124 13.9375 6.9999 13.65 6.9999 13.3V11.5H1.5999V16.3C1.5999 16.65 1.7124 16.9375 1.9374 17.1625C2.1624 17.3875 2.4499 17.5 2.7999 17.5H17.1999C17.5499 17.5 17.8374 17.3875 18.0624 17.1625C18.2874 16.9375 18.3999 16.65 18.3999 16.3V11.5ZM8.1999 11.5V13.3H11.7999V11.5H8.1999Z" fill="#2F3941"/>
</svg>
