<svg width="18" height="20" viewBox="0 0 18 20" fill="none" xmlns="http://www.w3.org/2000/svg">
    <path d="M7.7624 2.125L7.2749 3.8875C7.1249 4.3625 6.8374 4.7 6.4124 4.9C6.1374 5.025 5.8749 5.175 5.6249 5.35C5.2499 5.6 4.8249 5.6875 4.3499 5.6125L2.5124 5.1625C2.4624 5.1375 2.4124 5.1375 2.3624 5.1625C2.1624 5.4125 1.9749 5.6875 1.7999 5.9875L1.6499 6.25C1.4999 6.525 1.3624 6.8125 1.2374 7.1125C1.2374 7.1625 1.2624 7.2125 1.3124 7.2625L2.5874 8.6125C2.9124 8.9625 3.0624 9.375 3.0374 9.85C3.0124 10 2.9999 10.15 2.9999 10.3C2.9999 10.45 3.0124 10.6125 3.0374 10.7875C3.0624 11.2375 2.9124 11.6375 2.5874 11.9875L1.3124 13.3375C1.2624 13.3625 1.2249 13.4125 1.1999 13.4875C1.3249 13.7875 1.4749 14.075 1.6499 14.35L1.7999 14.6125C1.9749 14.9125 2.1624 15.1875 2.3624 15.4375C2.4124 15.4625 2.4624 15.4625 2.5124 15.4375L4.3124 14.9875C4.8124 14.9125 5.2374 15 5.5874 15.25C5.8624 15.425 6.1374 15.575 6.4124 15.7C6.8124 15.9 7.0999 16.2375 7.2749 16.7125L7.7624 18.475C7.7874 18.525 7.8249 18.575 7.8749 18.625C8.2499 18.675 8.6249 18.7 8.9999 18.7C9.3749 18.7 9.7499 18.675 10.1249 18.625C10.1749 18.575 10.2124 18.525 10.2374 18.475L10.7249 16.7125C10.8749 16.2375 11.1624 15.9 11.5874 15.7C11.8624 15.575 12.1374 15.425 12.4124 15.25C12.7874 15 13.1999 14.9125 13.6499 14.9875L15.4874 15.4375C15.5374 15.4625 15.5874 15.4625 15.6374 15.4375C15.8374 15.1875 16.0249 14.9125 16.1999 14.6125L16.3499 14.35C16.4999 14.075 16.6374 13.7875 16.7624 13.4875C16.7624 13.4125 16.7374 13.3625 16.6874 13.3375L15.4124 11.9875C15.0874 11.6375 14.9499 11.2375 14.9999 10.7875C14.9999 10.6125 14.9999 10.45 14.9999 10.3C14.9999 10.15 14.9999 10 14.9999 9.85C14.9499 9.375 15.0874 8.9625 15.4124 8.6125L16.6874 7.2625C16.7374 7.2375 16.7749 7.1875 16.7999 7.1125C16.6749 6.8125 16.5249 6.525 16.3499 6.25L16.1999 5.9875C16.0249 5.6875 15.8374 5.4125 15.6374 5.1625C15.5874 5.1375 15.5374 5.1375 15.4874 5.1625L13.6874 5.6125C13.1874 5.6875 12.7624 5.6 12.4124 5.35C12.1374 5.175 11.8624 5.025 11.5874 4.9C11.1874 4.7 10.8999 4.375 10.7249 3.925L10.2374 2.125C10.2124 2.075 10.1749 2.025 10.1249 1.975C9.7499 1.925 9.3749 1.9 8.9999 1.9C8.6249 1.9 8.2499 1.925 7.8749 1.975C7.8249 2.025 7.7874 2.075 7.7624 2.125ZM8.9999 0.699999C9.4999 0.699999 9.9749 0.737499 10.4249 0.812499C10.4999 0.812499 10.5624 0.837499 10.6124 0.887499C10.9874 1.0625 11.2374 1.3625 11.3624 1.7875L11.8874 3.5875C11.9124 3.6625 11.9874 3.7375 12.1124 3.8125C12.4374 3.9625 12.7624 4.15 13.0874 4.375C13.1874 4.425 13.2874 4.45 13.3874 4.45L15.1874 4C15.6124 3.9 15.9999 3.9625 16.3499 4.1875C16.3999 4.2125 16.4499 4.25 16.4999 4.3C16.7749 4.625 17.0249 4.975 17.2499 5.35L17.3999 5.65C17.5999 6.025 17.7749 6.4125 17.9249 6.8125C17.9499 6.8625 17.9749 6.925 17.9999 7C17.9999 7.425 17.8499 7.8 17.5499 8.125L16.2749 9.4375C16.1999 9.5125 16.1624 9.6125 16.1624 9.7375C16.1874 9.9125 16.1999 10.1 16.1999 10.3C16.1999 10.5 16.1874 10.6875 16.1624 10.8625C16.1624 10.9875 16.1999 11.0875 16.2749 11.1625L17.5499 12.5125C17.8499 12.8125 17.9999 13.175 17.9999 13.6C17.9749 13.675 17.9499 13.7375 17.9249 13.7875C17.7749 14.1875 17.5999 14.575 17.3999 14.95L17.2499 15.25H17.2124C17.0124 15.625 16.7749 15.975 16.4999 16.3C16.4499 16.35 16.3999 16.3875 16.3499 16.4125C15.9999 16.6375 15.6124 16.7125 15.1874 16.6375L13.3874 16.1875C13.2874 16.1625 13.1874 16.175 13.0874 16.225C12.7624 16.45 12.4374 16.6375 12.1124 16.7875C11.9874 16.8625 11.9124 16.9375 11.8874 17.0125L11.3624 18.8125C11.2374 19.2375 10.9874 19.55 10.6124 19.75C10.5624 19.775 10.4999 19.7875 10.4249 19.7875C9.9749 19.8625 9.4999 19.9 8.9999 19.9C8.4999 19.9 8.0249 19.8625 7.5749 19.7875C7.4999 19.7875 7.4374 19.775 7.3874 19.75C7.0124 19.55 6.7624 19.2375 6.6374 18.8125L6.1124 17.0125C6.0874 16.9375 6.0124 16.8625 5.8874 16.7875C5.5624 16.6375 5.2374 16.45 4.9124 16.225C4.8124 16.175 4.7124 16.1625 4.6124 16.1875L2.8124 16.6375C2.3874 16.7125 1.9999 16.65 1.6499 16.45C1.5999 16.4 1.5499 16.35 1.4999 16.3C1.2249 15.975 0.987402 15.625 0.787402 15.25H0.749902L0.599902 14.95C0.399902 14.575 0.224902 14.1875 0.0749024 13.7875C0.0499024 13.7375 0.0374024 13.675 0.0374024 13.6C0.0124024 13.2 0.149902 12.8375 0.449902 12.5125L1.7249 11.1625C1.7999 11.0875 1.8374 10.9875 1.8374 10.8625C1.8124 10.6875 1.7999 10.5 1.7999 10.3C1.7999 10.2 1.7999 10.1125 1.7999 10.0375C1.7999 9.9375 1.8124 9.8375 1.8374 9.7375C1.8374 9.6125 1.7999 9.5125 1.7249 9.4375L0.449902 8.125C0.149902 7.8 -9.76324e-05 7.425 -9.76324e-05 7C0.0249024 6.925 0.0499024 6.8625 0.0749024 6.8125C0.224902 6.4125 0.399902 6.025 0.599902 5.65L0.749902 5.35H0.787402C0.987402 4.975 1.2249 4.625 1.4999 4.3C1.5499 4.25 1.5999 4.2125 1.6499 4.1875C1.9999 3.9625 2.3874 3.9 2.8124 4L4.6124 4.45C4.7124 4.45 4.8124 4.425 4.9124 4.375C5.2374 4.15 5.5624 3.9625 5.8874 3.8125C6.0124 3.7375 6.0874 3.6625 6.1124 3.5875L6.6374 1.7875C6.7624 1.3625 7.0124 1.0625 7.3874 0.887499C7.4374 0.837499 7.4999 0.812499 7.5749 0.812499C8.0249 0.737499 8.4999 0.699999 8.9999 0.699999ZM6.8999 10.3C6.9249 11.1 7.2749 11.7 7.9499 12.1C8.6499 12.5 9.3499 12.5 10.0499 12.1C10.7249 11.7 11.0749 11.1 11.0999 10.3C11.0749 9.5 10.7249 8.9 10.0499 8.5C9.3499 8.1 8.6499 8.1 7.9499 8.5C7.2749 8.9 6.9249 9.5 6.8999 10.3ZM12.2999 10.3C12.2499 11.55 11.6999 12.5 10.6499 13.15C9.5499 13.75 8.4499 13.75 7.3499 13.15C6.2999 12.5 5.7499 11.55 5.6999 10.3C5.7499 9.05 6.2999 8.1 7.3499 7.45C8.4499 6.85 9.5499 6.85 10.6499 7.45C11.6999 8.1 12.2499 9.05 12.2999 10.3Z" fill="#2F3941"/>
    </svg>
    