<svg width="20" height="18" viewBox="0 0 20 18" fill="none" xmlns="http://www.w3.org/2000/svg">
    <path d="M19.4124 9.7125L14.6124 14.5125C14.3374 14.7625 14.0624 14.7625 13.7874 14.5125C13.5374 14.2375 13.5374 13.9625 13.7874 13.6875L17.5374 9.9H6.9999C6.6249 9.875 6.4249 9.675 6.3999 9.3C6.4249 8.925 6.6249 8.725 6.9999 8.7H17.5374L13.7874 4.9125C13.5374 4.6375 13.5374 4.3625 13.7874 4.0875C14.0624 3.8375 14.3374 3.8375 14.6124 4.0875L19.4124 8.8875C19.6624 9.1625 19.6624 9.4375 19.4124 9.7125ZM6.9999 2.1H3.3999C2.8999 2.125 2.4749 2.3 2.1249 2.625C1.7999 2.975 1.6249 3.4 1.5999 3.9V14.7C1.6249 15.2 1.7999 15.625 2.1249 15.975C2.4749 16.3 2.8999 16.475 3.3999 16.5H6.9999C7.3749 16.525 7.5749 16.725 7.5999 17.1C7.5749 17.475 7.3749 17.675 6.9999 17.7H3.3999C2.5499 17.675 1.8374 17.3875 1.2624 16.8375C0.712402 16.2625 0.424902 15.55 0.399902 14.7V3.9C0.424902 3.05 0.712402 2.3375 1.2624 1.7625C1.8374 1.2125 2.5499 0.924999 3.3999 0.899999H6.9999C7.3749 0.924999 7.5749 1.125 7.5999 1.5C7.5749 1.875 7.3749 2.075 6.9999 2.1Z" fill="#2F3941"/>
    </svg>
    