<svg width="20" height="20" viewBox="0 0 20 20" fill="none" xmlns="http://www.w3.org/2000/svg">
    <path d="M11.7999 0.699999C12.1749 0.724999 12.3749 0.924999 12.3999 1.3V2.5H13.5999C13.9749 2.525 14.1749 2.725 14.1999 3.1C14.1749 3.475 13.9749 3.675 13.5999 3.7H12.3999V4.9C12.3749 5.275 12.1749 5.475 11.7999 5.5C11.4249 5.475 11.2249 5.275 11.1999 4.9V3.7H9.9999C9.6249 3.675 9.4249 3.475 9.3999 3.1C9.4249 2.725 9.6249 2.525 9.9999 2.5H11.1999V1.3C11.2249 0.924999 11.4249 0.724999 11.7999 0.699999ZM6.2874 6.85C4.9124 7.175 3.7999 7.8625 2.9499 8.9125C2.0749 9.9875 1.6249 11.25 1.5999 12.7C1.6499 14.4 2.2374 15.8125 3.3624 16.9375C4.4874 18.0875 5.8999 18.675 7.5999 18.7C8.5749 18.7 9.4624 18.5 10.2624 18.1C8.5874 17.85 7.2124 17.1125 6.1374 15.8875C5.0624 14.6625 4.4999 13.175 4.4499 11.425C4.4999 9.625 5.1124 8.1 6.2874 6.85ZM0.399902 12.7C0.449902 10.675 1.1499 8.975 2.4999 7.6C3.8499 6.25 5.5499 5.55 7.5999 5.5C7.7999 5.5 7.9999 5.5125 8.1999 5.5375C8.4749 5.5625 8.6499 5.7125 8.7249 5.9875C8.7749 6.2625 8.6874 6.4875 8.4624 6.6625C7.6124 7.1375 6.9374 7.7875 6.4374 8.6125C5.9374 9.4625 5.6749 10.4 5.6499 11.425C5.6999 13 6.2374 14.3 7.2624 15.325C8.2874 16.35 9.5874 16.8875 11.1624 16.9375C11.4624 16.9375 11.7749 16.9125 12.0999 16.8625C12.3749 16.8125 12.5874 16.9125 12.7374 17.1625C12.8374 17.4375 12.7999 17.675 12.6249 17.875C11.2749 19.175 9.5999 19.85 7.5999 19.9C5.5499 19.85 3.8499 19.15 2.4999 17.8C1.1499 16.45 0.449902 14.75 0.399902 12.7ZM16.5999 6.7V9.1H18.9999C19.3749 9.125 19.5749 9.325 19.5999 9.7C19.5749 10.075 19.3749 10.275 18.9999 10.3H16.5999V12.7C16.5749 13.075 16.3749 13.275 15.9999 13.3C15.6249 13.275 15.4249 13.075 15.3999 12.7V10.3H12.9999C12.6249 10.275 12.4249 10.075 12.3999 9.7C12.4249 9.325 12.6249 9.125 12.9999 9.1H15.3999V6.7C15.4249 6.325 15.6249 6.125 15.9999 6.1C16.3749 6.125 16.5749 6.325 16.5999 6.7Z" fill="#2F3941"/>
    </svg>
    