<svg width="50" height="17" viewBox="0 0 50 17" fill="none" xmlns="http://www.w3.org/2000/svg">
    <path
        d="M11.2215 12.3275C11.369 12.6889 11.5272 12.9604 11.6975 13.1414C11.8785 13.311 12.0538 13.4009 12.2234 13.4129V13.7522C11.1939 13.7146 10.1637 13.6977 9.13354 13.7015C7.84367 13.7015 6.89304 13.718 6.28165 13.7522V13.4129C6.71203 13.3901 7.01709 13.3395 7.1981 13.2598C7.37911 13.1699 7.47025 13.0167 7.47025 12.8022C7.47025 12.5984 7.4019 12.3275 7.26582 11.9876L6.26456 9.20533H2.83544L2.54684 9.96926C2.17342 10.93 1.98608 11.6655 1.98608 12.1743C1.98608 12.6382 2.11646 12.9547 2.37658 13.1243C2.63734 13.2939 3.02215 13.3901 3.53101 13.4129V13.7522C2.79007 13.7207 2.04857 13.7038 1.30696 13.7015C0.775316 13.7015 0.339241 13.718 0 13.7522V13.4129C0.282911 13.3674 0.548734 13.192 0.797468 12.887C1.04684 12.5813 1.30127 12.0952 1.56203 11.4281L5.33101 1.74141C5.63041 1.76143 5.93033 1.77261 6.23038 1.77496C6.45696 1.77496 6.75127 1.76357 7.11329 1.74141L11.2215 12.3275ZM6.14557 8.86546L4.60127 4.62496L2.97089 8.86546H6.14557ZM16.0329 4.70977C16.4741 4.70977 16.8873 4.7604 17.2722 4.8623C17.6684 4.9528 17.9684 5.0547 18.1722 5.16799C18.2962 5.23571 18.3981 5.26926 18.4778 5.26926C18.7152 5.26926 18.857 5.08888 18.9019 4.72685H19.2418C19.1962 5.31546 19.1734 6.33255 19.1734 7.78065H18.8342C18.7437 7.03382 18.5285 6.4066 18.1886 5.89774C17.8608 5.37749 17.3797 5.11736 16.7456 5.11736C16.4627 5.11736 16.2253 5.20217 16.0329 5.37179C15.8405 5.54141 15.7443 5.77306 15.7443 6.06736C15.7443 6.44078 15.869 6.77369 16.1177 7.06799C16.3665 7.3509 16.757 7.7009 17.2886 8.11989C17.312 8.13128 17.4759 8.26103 17.7816 8.50976C18.4152 9.03002 18.8791 9.49394 19.1741 9.9009C19.4677 10.2971 19.6152 10.7889 19.6152 11.3769C19.6174 11.8678 19.4559 12.3455 19.1563 12.7344C18.8513 13.13 18.4323 13.4408 17.9 13.6674C17.3797 13.8825 16.8082 13.9901 16.1854 13.9901C15.4728 13.9901 14.8899 13.8484 14.4367 13.5655C14.2835 13.4815 14.1249 13.4077 13.962 13.3446C13.8425 13.3003 13.7161 13.2773 13.5886 13.2768C13.3734 13.2768 13.2152 13.475 13.1127 13.8705H12.7734C12.8184 13.2262 12.8411 12.0952 12.8411 10.4781H13.181C13.2823 11.4053 13.5316 12.1515 13.9278 12.7174C14.3241 13.2825 14.8215 13.5655 15.4215 13.5655C15.7044 13.5655 15.9367 13.4863 16.1177 13.3281C16.3101 13.1699 16.4063 12.9376 16.4063 12.6319C16.4063 12.3155 16.3386 12.0332 16.2025 11.7838C16.0809 11.5391 15.9204 11.3157 15.7272 11.1224C15.5462 10.9186 15.2462 10.6306 14.8272 10.2572C14.4555 9.91671 14.0934 9.56594 13.7411 9.20533C13.4858 8.93672 13.2686 8.63432 13.0956 8.3066C12.9237 7.94648 12.8367 7.55179 12.8411 7.1528C12.8411 6.66673 12.988 6.23698 13.2823 5.86356C13.5766 5.49015 13.9671 5.20723 14.4538 5.01546C14.9544 4.80903 15.4914 4.70508 16.0329 4.70977ZM24.431 5.98255C24.9405 5.13445 25.8399 4.7104 27.1304 4.7104C28.0354 4.7104 28.6747 4.93635 29.0487 5.38825C29.2184 5.59204 29.343 5.86926 29.4222 6.21989C29.5013 6.55913 29.5411 7.01103 29.5411 7.57685V12.1743C29.5411 12.6382 29.6089 12.9604 29.7449 13.1414C29.8918 13.311 30.1411 13.3958 30.4918 13.3958V13.7522C29.2696 13.7066 28.4772 13.6844 28.1152 13.6844C27.7304 13.6844 26.9266 13.7066 25.7038 13.7522V13.3958C25.9987 13.3958 26.2025 13.311 26.3152 13.1414C26.4291 12.9604 26.4854 12.6382 26.4854 12.1743V6.66103C26.4854 6.29901 26.4171 6.03318 26.2816 5.86356C26.157 5.68255 25.9475 5.59204 25.6532 5.59204C25.3253 5.59204 25.0367 5.71103 24.7873 5.94837C24.55 6.17432 24.431 6.46293 24.431 6.81356V12.1743C24.431 12.6382 24.488 12.9604 24.6006 13.1414C24.7139 13.311 24.9171 13.3958 25.212 13.3958V13.7522C24.0804 13.7066 23.3329 13.6844 22.9715 13.6844C22.5861 13.6844 21.7373 13.7066 20.4247 13.7522V13.3958C20.7753 13.3958 21.0184 13.311 21.1544 13.1414C21.3019 12.9604 21.3753 12.6382 21.3753 12.1743V2.52116C21.3753 2.00091 21.3013 1.62243 21.1544 1.38508C21.0184 1.14711 20.7747 1.02876 20.4247 1.02876V0.672427C20.7753 0.705971 21.1259 0.723059 21.4772 0.723059C22.6544 0.723059 23.6386 0.643946 24.4304 0.485718V5.98255H24.431ZM37.3861 4.70977C38.2684 4.70977 38.981 5.07179 39.5253 5.79584C40.0677 6.51926 40.3399 7.57685 40.3399 8.96799C40.3399 10.7661 39.9772 12.0553 39.2532 12.8357C38.5285 13.6047 37.5722 13.9895 36.3842 13.9895C36.0215 13.9895 35.7165 13.9781 35.4671 13.956C35.2386 13.9355 35.015 13.878 34.8051 13.7857C34.3901 13.6168 33.9461 13.5304 33.4981 13.5313C33.1582 13.5313 32.8411 13.5768 32.5475 13.6674C32.2532 13.7579 32.0266 13.8762 31.8684 14.0237L31.6304 13.8541C31.7095 13.6161 31.7494 13.3053 31.7494 12.9205V2.52179C31.7494 2.00091 31.6759 1.62243 31.5285 1.38508C31.393 1.14711 31.1494 1.02876 30.7987 1.02876V0.672427C31.1494 0.705971 31.5 0.723059 31.8513 0.723059C33.0285 0.723059 34.0127 0.643946 34.8051 0.485718V5.98255C35.326 5.13445 36.1861 4.7104 37.3854 4.7104L37.3861 4.70977ZM35.6025 13.6503C36.6437 13.6503 37.1646 12.2199 37.1646 9.3585C37.1646 7.96736 37.0627 6.99458 36.8589 6.44078C36.6551 5.87496 36.3778 5.59204 36.0266 5.59204C35.6987 5.59204 35.4101 5.71103 35.1608 5.94837C34.9234 6.17432 34.8044 6.46293 34.8044 6.81356V13.4465C35.0646 13.5825 35.3316 13.6503 35.6025 13.6503ZM48.2165 5.01546C48.862 5.01546 49.2975 4.99268 49.5234 4.94711V5.30344C49.2861 5.38255 49.0652 5.54711 48.8614 5.79584C48.669 6.04458 48.488 6.42875 48.3184 6.94901L46.1962 13.2598L45.4829 15.3129C45.2791 15.9009 45.0304 16.3079 44.7361 16.5344C44.3854 16.806 43.8589 16.9414 43.157 16.9414C42.6044 16.9448 42.0605 16.8046 41.5785 16.5344C41.0911 16.2743 40.8481 15.8781 40.8481 15.3465C40.8481 14.9509 41.0013 14.6344 41.307 14.3971C41.612 14.1591 42.0139 14.0401 42.512 14.0401C42.9873 14.0401 43.3608 14.1477 43.6323 14.3629C43.9044 14.5781 44.0399 14.8882 44.0399 15.2958C44.0399 15.5674 43.9437 15.8212 43.7513 16.0591C43.5703 16.3079 43.2987 16.4895 42.9367 16.6022C43.0494 16.6249 43.2424 16.6357 43.5139 16.6357C44.2949 16.6357 44.8323 16.1838 45.1266 15.2787L45.2114 14.9901L41.2557 6.25344C41.0861 5.86926 40.9165 5.6142 40.7462 5.49015C40.588 5.36609 40.4297 5.30344 40.2715 5.30344V4.94774C41.1766 5.0161 42.0987 5.04964 43.0386 5.04964C43.774 5.04964 44.5943 5.0161 45.5 4.94837V5.30407C45.1715 5.30407 44.9177 5.32685 44.7361 5.37242C44.5665 5.41736 44.4816 5.51926 44.4816 5.67749C44.4816 5.76799 44.5038 5.8585 44.5494 5.94901L46.638 10.9199L47.3506 8.74837C47.5658 8.09204 47.6734 7.51546 47.6734 7.01799C47.6734 6.48635 47.5595 6.07306 47.3335 5.77939C47.2286 5.63792 47.0933 5.52182 46.9375 5.43966C46.7818 5.3575 46.6095 5.31138 46.4335 5.3047V4.94774C46.8525 4.99331 47.4462 5.01546 48.2165 5.01546Z"
        fill="#483ACE" />
</svg>
     