<svg width="80" height="24" viewBox="0 0 80 24" fill="none" xmlns="http://www.w3.org/2000/svg">
    <path
        d="M22.5102 21.8789L18.2328 17.6006C18.0977 17.4682 17.9161 17.394 17.7269 17.394C17.5377 17.394 17.3561 17.4682 17.221 17.6006L12.9436 21.8789C12.8416 21.9761 12.7716 22.1021 12.743 22.2401C12.7144 22.3782 12.7284 22.5216 12.7833 22.6514C12.8382 22.7813 12.9313 22.8913 13.0503 22.9669C13.1692 23.0425 13.3084 23.0801 13.4492 23.0746H22.0046C22.1447 23.0781 22.2825 23.0394 22.4002 22.9635C22.5179 22.8875 22.61 22.7779 22.6646 22.6489C22.7191 22.5199 22.7336 22.3774 22.706 22.2401C22.6785 22.1028 22.6103 21.9769 22.5102 21.8789Z"
        fill="#C3C6CC" />
    <path
        d="M22.6515 6.5123L21.3116 2.53442C21.2512 2.35452 21.1548 2.1888 21.0283 2.0473L0.164062 22.9117C0.286506 23.0213 0.446447 23.0795 0.610687 23.0743H6.53681C6.70243 23.0751 6.86659 23.0432 7.01987 22.9805C7.17315 22.9177 7.31254 22.8253 7.43005 22.7086L22.3675 7.77057C22.5298 7.60973 22.6428 7.40583 22.6931 7.1829C22.7435 6.95997 22.729 6.7273 22.6515 6.5123Z"
        fill="#E1E3E6" />
    <path
        d="M20.5408 1.76227L16.5631 0.423056C16.3481 0.345539 16.1155 0.33109 15.8925 0.381413C15.6696 0.431736 15.4657 0.544733 15.3049 0.707088L0.366756 15.6451C0.131768 15.8829 0.0005399 16.2041 0.00178733 16.5384V22.4647C-0.00342891 22.629 0.0548001 22.7889 0.164389 22.9114L21.0286 2.04704C20.887 1.92013 20.721 1.82326 20.5408 1.76227Z"
        fill="#C3C6CC" />
    <path
        d="M77.5935 11.3935C77.6068 11.6245 77.552 11.8544 77.4359 12.0546C77.3337 12.2103 77.1891 12.3335 77.0191 12.4096C76.8324 12.4916 76.6326 12.5394 76.429 12.5509C76.2082 12.5672 75.9878 12.5753 75.7679 12.5751H74.9968V10.2282H75.8468C76.0517 10.2283 76.2564 10.2387 76.4603 10.2595C76.6563 10.2767 76.8479 10.3274 77.0269 10.4093C77.1935 10.4867 77.3352 10.6092 77.4359 10.7629C77.5495 10.953 77.6043 11.1723 77.5935 11.3935ZM77.8768 17.3944H80.0015L78.8368 15.6774C78.6373 15.3834 78.4354 15.1001 78.2311 14.8274C78.0259 14.5541 77.8553 14.3283 77.7192 14.15C77.6211 13.9902 77.4928 13.851 77.3414 13.7403C77.9166 13.6934 78.4531 13.4321 78.8446 13.0082C79.2476 12.557 79.4592 11.9667 79.4347 11.3622C79.4424 11.0007 79.367 10.6422 79.2142 10.3145C79.0614 9.98673 78.8354 9.69849 78.5535 9.472C78.2605 9.24199 77.9184 9.08281 77.5537 9.00689C77.0803 8.91021 76.5976 8.86545 76.1145 8.8734H73.2501V17.3944H74.9968V13.8504C75.1684 13.8427 75.3383 13.8868 75.4846 13.9768C75.612 14.0618 75.7284 14.1622 75.8311 14.2757C75.9854 14.4651 76.1297 14.6623 76.2636 14.8665C76.4368 15.1235 76.6913 15.5094 77.0269 16.0239L77.8768 17.3944ZM63.0778 17.3944H68.5545V15.9139H64.8565V13.6459H67.6257V12.2442H64.8402V10.2751H68.1768L68.4281 8.8734H63.0778V17.3944ZM56.2074 17.3937L59.5276 8.8734H57.6864L56.0029 13.2993C55.9215 13.5003 55.8506 13.7053 55.7906 13.9136C55.7224 14.1443 55.662 14.3621 55.6095 14.5668C55.5569 14.7721 55.5148 14.9427 55.4831 15.0788L55.4362 15.284L55.373 15.0788C55.3418 14.9318 55.2999 14.7562 55.2474 14.5519C55.1948 14.3467 55.1345 14.1287 55.0663 13.8979C54.9981 13.6665 54.9326 13.4617 54.8696 13.2837L53.3118 8.8734H51.3605L54.6182 17.3937H56.2074ZM42.3684 17.3944H47.8443V15.9139H44.1464V13.6459H46.9163V12.2442H44.1307V10.2751H47.4666L47.7186 8.8734H42.3684V17.3944ZM37.5734 17.3944L37.9043 15.9451H34.442V8.8734H32.6641V17.3944H37.5734Z"
        fill="#262933" />
</svg>