<?xml version="1.0" encoding="utf-8"?>
<!-- Generator: Adobe Illustrator 27.3.1, SVG Export Plug-In . SVG Version: 6.00 Build 0)  -->
<svg version="1.1" id="Layer_1" xmlns="http://www.w3.org/2000/svg" xmlns:xlink="http://www.w3.org/1999/xlink" x="0px" y="0px"
	 viewBox="0 0 100 100" style="enable-background:new 0 0 100 100;" xml:space="preserve">
<style type="text/css">
	.st0{fill:#FF6224;}
</style>
<path class="st0" d="M83.3,45.8c-11.3-2.8-17-4.2-20.9-8.2c-3.9-3.9-5.3-9.6-8.2-20.9L50,0l-4.2,16.7c-2.8,11.3-4.2,17-8.2,20.9
	c-3.9,3.9-9.6,5.3-20.9,8.2L0,50l16.7,4.2c11.3,2.8,17,4.2,20.9,8.2c3.9,3.9,5.3,9.6,8.2,20.9L50,100l4.2-16.7
	c2.8-11.3,4.2-17,8.2-20.9c3.9-3.9,9.6-5.3,20.9-8.2L100,50L83.3,45.8z"/>
</svg>
