<svg width="120" height="27" viewBox="0 0 120 27" fill="none" xmlns="http://www.w3.org/2000/svg">
    <path d="M10.1507 9.78943C10.1507 10.9654 9.65351 12.0051 8.83923 12.8186C7.93494 13.7229 6.62351 13.95 6.62351 14.718C6.62351 15.7577 8.29665 15.4414 9.90208 17.0469C10.9649 18.1097 11.6198 19.5111 11.6198 21.1389C11.6198 24.3489 9.04237 26.904 5.81008 26.904C2.57694 26.9031 -0.000488281 24.3514 -0.000488281 21.1397C-0.000488281 19.512 0.655226 18.1106 1.71808 17.0477C3.32265 15.4431 4.9958 15.7594 4.9958 14.7197C4.9958 13.9509 3.68437 13.7246 2.78008 12.8203C1.9658 12.006 1.46865 10.9663 1.46865 9.74571C1.46865 7.39457 3.39037 5.49514 5.74151 5.49514C6.19408 5.49514 6.60123 5.56371 6.9398 5.56371C7.55094 5.56371 7.86723 5.292 7.86723 4.86257C7.86723 4.614 7.75408 4.29685 7.75408 3.95828C7.75408 3.18942 8.4098 2.556 9.20094 2.556C9.99208 2.556 10.6255 3.21171 10.6255 4.00285C10.6255 4.83943 9.9698 5.22428 9.47265 5.40514C9.06551 5.54057 8.74837 5.72143 8.74837 6.12857C8.74837 6.89485 10.1507 7.64143 10.1507 9.78943ZM9.69808 21.1406C9.69808 18.9034 8.04808 17.094 5.81008 17.094C3.57123 17.094 1.92123 18.9026 1.92123 21.1406C1.92123 23.3563 3.57123 25.188 5.81008 25.188C8.04723 25.188 9.69808 23.3537 9.69808 21.1406ZM8.36523 9.744C8.36523 8.32028 7.21237 7.14428 5.81094 7.14428C4.40865 7.14428 3.25665 8.32028 3.25665 9.744C3.25665 11.1686 4.40865 12.3446 5.81094 12.3446C7.21237 12.3446 8.36523 11.1686 8.36523 9.744ZM18.2884 5.71971C19.0118 5.71971 19.5544 6.26228 19.5544 6.94028C19.5544 7.61828 19.0341 8.16085 18.3115 8.16085C17.5649 8.16085 17.1578 7.68685 16.4121 7.68685C15.6887 7.68685 15.1229 8.20628 15.1229 9.08828V16.2094C15.1229 16.4643 15.0217 16.7087 14.8415 16.8889C14.6613 17.069 14.4169 17.1703 14.1621 17.1703C13.9072 17.1703 13.6629 17.069 13.4827 16.8889C13.3025 16.7087 13.2012 16.4643 13.2012 16.2094V6.624C13.1996 6.49778 13.223 6.37249 13.2699 6.2553C13.3167 6.13811 13.3863 6.03132 13.4745 5.94104C13.5627 5.85075 13.6679 5.77875 13.7839 5.72916C13.9 5.67956 14.0247 5.65334 14.1509 5.652C15.1229 5.652 14.9421 6.57857 15.9141 6.57857C16.8415 6.57857 17.1801 5.71971 18.2884 5.71971ZM20.3918 11.4171C20.3918 8.00314 22.7429 5.53885 25.9761 5.53885C28.9375 5.53885 31.2887 7.70914 31.2887 10.6714C31.2887 11.3717 30.8369 11.8466 30.1812 11.8466H22.8338C22.5167 11.8466 22.4035 11.9597 22.4035 12.2083C22.4035 12.774 22.8561 13.8137 23.5349 14.4917C24.2121 15.1697 25.1395 15.5769 26.4509 15.5769C27.4229 15.5769 28.2818 15.2151 28.9375 14.7403C29.1407 14.5826 29.3669 14.4917 29.5932 14.4917C30.0681 14.4917 30.4521 14.9211 30.4521 15.3737C30.4521 15.6446 30.3621 15.8709 30.1358 16.074C29.1861 16.866 27.8524 17.2954 26.4055 17.2954C22.9015 17.2954 20.3918 14.7634 20.3918 11.4171ZM28.3949 8.16171C27.7615 7.52828 26.9481 7.212 25.9761 7.212C25.0041 7.212 24.0989 7.59685 23.4441 8.25171C22.9238 8.772 22.5621 9.45 22.5621 9.90257C22.5621 10.1289 22.6975 10.2197 22.9915 10.2197H28.8698C29.1407 10.2197 29.2769 10.1289 29.2769 9.90257C29.2769 9.36 28.8475 8.61343 28.3949 8.16171ZM33.2335 11.4171C33.2335 8.00314 35.5838 5.53885 38.8169 5.53885C41.7792 5.53885 44.1304 7.70914 44.1304 10.6714C44.1304 11.3717 43.6778 11.8466 43.0221 11.8466H35.6747C35.3575 11.8466 35.2452 11.9597 35.2452 12.2083C35.2452 12.774 35.6969 13.8137 36.3758 14.4917C37.0538 15.1697 37.9804 15.5769 39.2918 15.5769C40.2638 15.5769 41.1235 15.2151 41.7784 14.7403C41.9824 14.5826 42.2087 14.4917 42.4341 14.4917C42.9089 14.4917 43.2938 14.9211 43.2938 15.3737C43.2938 15.6446 43.2029 15.8709 42.9767 16.074C42.0278 16.866 40.6941 17.2954 39.2464 17.2954C35.7424 17.2954 33.2335 14.7634 33.2335 11.4171ZM41.2358 8.16171C40.6032 7.52828 39.7889 7.212 38.8169 7.212C37.8449 7.212 36.9407 7.59685 36.2849 8.25171C35.7655 8.772 35.4029 9.45 35.4029 9.90257C35.4029 10.1289 35.5392 10.2197 35.8332 10.2197H41.7107C41.9824 10.2197 42.1178 10.1289 42.1178 9.90257C42.1178 9.36 41.6884 8.61343 41.2358 8.16171ZM55.4567 17.1823C55.3287 17.1833 55.2018 17.1589 55.0833 17.1104C54.9649 17.0619 54.8573 16.9904 54.7668 16.8999C54.6762 16.8095 54.6046 16.7019 54.556 16.5835C54.5074 16.4651 54.4829 16.3383 54.4838 16.2103V10.0611C54.4838 8.45571 53.2178 7.23514 51.5901 7.23514C49.9401 7.23514 48.6741 8.478 48.6741 10.0611V16.2103C48.6741 16.4651 48.5729 16.7095 48.3927 16.8897C48.2125 17.0699 47.9681 17.1711 47.7132 17.1711C47.4584 17.1711 47.214 17.0699 47.0338 16.8897C46.8536 16.7095 46.7524 16.4651 46.7524 16.2103V6.60171C46.7524 6.08143 47.1818 5.652 47.6789 5.652C48.6287 5.652 48.5832 6.51171 49.0812 6.51171C49.5784 6.51171 50.2564 5.53885 52.0195 5.53885C54.4838 5.53885 56.4055 7.596 56.4055 10.0611V16.2103C56.4071 16.3364 56.3838 16.4616 56.337 16.5788C56.2901 16.6959 56.2207 16.8027 56.1325 16.8929C56.0444 16.9832 55.9394 17.0552 55.8234 17.1049C55.7074 17.1545 55.5828 17.1808 55.4567 17.1823ZM68.4338 17.1823C68.3058 17.1833 68.1789 17.1589 68.0605 17.1104C67.942 17.0619 67.8344 16.9904 67.7439 16.8999C67.6534 16.8095 67.5817 16.7019 67.5331 16.5835C67.4846 16.4651 67.46 16.3383 67.4609 16.2103V10.0603C67.4609 8.45571 66.1949 7.23428 64.5672 7.23428C62.9172 7.23428 61.6512 8.47714 61.6512 10.0603V16.2103C61.6512 16.4651 61.55 16.7095 61.3698 16.8897C61.1896 17.0699 60.9452 17.1711 60.6904 17.1711C60.4355 17.1711 60.1911 17.0699 60.0109 16.8897C59.8307 16.7095 59.7295 16.4651 59.7295 16.2103V0.971996C59.7295 0.717161 59.8307 0.472763 60.0109 0.292567C60.1911 0.112372 60.4355 0.0111389 60.6904 0.0111389C60.9452 0.0111389 61.1896 0.112372 61.3698 0.292567C61.55 0.472763 61.6512 0.717161 61.6512 0.971996V5.96914C61.6512 6.24 61.7635 6.39771 62.0575 6.39771C62.5547 6.39771 63.2335 5.53885 64.9975 5.53885C67.4609 5.53885 69.3827 7.596 69.3827 10.0603V16.2103C69.3842 16.3365 69.3609 16.4618 69.314 16.579C69.2671 16.6962 69.1976 16.803 69.1094 16.8932C69.0212 16.9835 68.916 17.0555 68.7999 17.1051C68.6839 17.1547 68.56 17.1809 68.4338 17.1823ZM72.0252 11.4171C72.0252 8.13943 74.6481 5.53885 77.9481 5.53885C81.2498 5.53885 83.8718 8.13943 83.8718 11.4171C83.8718 14.6957 81.2489 17.2954 77.9489 17.2954C74.6498 17.2954 72.0252 14.6957 72.0252 11.4171ZM81.9527 11.4171C81.9527 9.13371 80.2572 7.25743 77.9507 7.25743C75.6672 7.25743 73.9718 9.13457 73.9718 11.4171C73.9718 13.7006 75.6672 15.5769 77.9507 15.5769C80.2564 15.5769 81.9527 13.7006 81.9527 11.4171ZM87.4667 5.652C88.0092 5.652 88.4387 6.08057 88.4387 6.624V12.7731C88.4387 14.3786 89.7047 15.5991 91.3332 15.5991C92.9832 15.5991 94.2492 14.3563 94.2492 12.7731V6.624C94.2492 6.36916 94.3505 6.12476 94.5307 5.94457C94.7108 5.76437 94.9553 5.66314 95.2101 5.66314C95.4649 5.66314 95.7093 5.76437 95.8895 5.94457C96.0697 6.12476 96.1709 6.36916 96.1709 6.624V16.2326C96.1709 16.752 95.7415 17.1814 95.2444 17.1814C94.2947 17.1814 94.3401 16.3226 93.8421 16.3226C93.3449 16.3226 92.6669 17.2946 90.9029 17.2946C88.4387 17.2946 86.5178 15.2374 86.5178 12.7731V6.624C86.5195 6.08143 86.9472 5.652 87.4667 5.652ZM99.5841 16.4589C99.1547 16.1871 98.8607 15.9163 98.8607 15.396C98.8607 14.8989 99.2447 14.5149 99.7195 14.5149C100.285 14.5149 100.534 14.8534 101.009 15.102C101.596 15.4414 102.275 15.6223 103.111 15.6223C104.648 15.6223 105.417 14.9211 105.417 14.0623C105.417 12.8417 104.286 12.6154 102.75 12.2083C100.85 11.7111 99.0192 11.1454 99.0192 8.95285C99.0192 7.00885 100.511 5.53885 103.156 5.53885C104.196 5.53885 105.168 5.81057 105.937 6.28457C106.208 6.44314 106.48 6.78257 106.48 7.16743C106.48 7.66457 106.073 8.09314 105.552 8.09314C105.213 8.09314 104.942 7.86771 104.603 7.64143C104.264 7.416 103.766 7.21285 103.088 7.21285C101.574 7.21285 100.918 7.86771 100.918 8.74971C100.918 9.90257 102.026 10.1734 103.608 10.5583C105.462 11.01 107.293 11.598 107.293 13.836C107.293 15.7809 105.846 17.2954 103.066 17.2954C101.709 17.2954 100.488 17.0237 99.5841 16.4589ZM109.103 11.4171C109.103 8.00314 111.454 5.53885 114.687 5.53885C117.648 5.53885 120 7.70914 120 10.6714C120 11.3717 119.548 11.8466 118.892 11.8466H111.545C111.228 11.8466 111.115 11.9597 111.115 12.2083C111.115 12.774 111.567 13.8137 112.245 14.4917C112.924 15.1697 113.85 15.5769 115.162 15.5769C116.134 15.5769 116.993 15.2151 117.648 14.7403C117.852 14.5826 118.078 14.4917 118.304 14.4917C118.779 14.4917 119.163 14.9211 119.163 15.3737C119.163 15.6446 119.073 15.8709 118.847 16.074C117.897 16.866 116.563 17.2954 115.116 17.2954C111.614 17.2954 109.103 14.7634 109.103 11.4171ZM117.108 8.16171C116.475 7.52828 115.662 7.212 114.69 7.212C113.717 7.212 112.812 7.59685 112.157 8.25171C111.637 8.772 111.276 9.45 111.276 9.90257C111.276 10.1289 111.411 10.2197 111.705 10.2197H117.583C117.854 10.2197 117.99 10.1289 117.99 9.90257C117.99 9.36 117.56 8.61343 117.108 8.16171Z" fill="#008561"/>
    </svg>
    