<svg width="60" height="17" viewBox="0 0 60 17" fill="none" xmlns="http://www.w3.org/2000/svg">
    <g clip-path="url(#clip0_1_2084)">
    <path fill-rule="evenodd" clip-rule="evenodd" d="M59.69 3.34407C59.5807 3.22013 59.4447 3.12262 59.2922 3.05891C59.1397 2.9952 58.9748 2.96695 58.8098 2.97628C58.6415 2.96623 58.4733 2.99744 58.3198 3.0672C58.1663 3.13696 58.0322 3.24316 57.9291 3.37657C57.726 3.63702 57.6197 4.02824 57.6197 4.54212V8.25954C57.2079 7.79016 56.7134 7.40043 56.1608 7.10977C55.8188 6.94398 55.4526 6.83385 55.076 6.78354C54.8277 6.74988 54.5773 6.73338 54.3267 6.73416C53.0793 6.73416 52.0684 7.1745 51.2941 8.05517C50.5278 8.93605 50.1445 10.1613 50.1443 11.731C50.1385 12.4323 50.2373 13.1305 50.4374 13.8026C50.6137 14.405 50.9014 14.969 51.2856 15.4653C51.6465 15.9226 52.1029 16.2955 52.6229 16.5579C53.1428 16.8131 53.715 16.944 54.2942 16.9401C54.5565 16.9417 54.8184 16.9175 55.076 16.8677C55.2365 16.8417 55.3948 16.8032 55.5494 16.7526C55.9311 16.6228 56.291 16.4362 56.6171 16.1992C56.985 15.9216 57.3212 15.6043 57.6197 15.2531V15.498C57.5957 15.8829 57.7146 16.2631 57.9536 16.5657C58.0631 16.6825 58.1951 16.7759 58.3416 16.8402C58.4882 16.9045 58.6463 16.9385 58.8063 16.94C58.9664 16.9415 59.1251 16.9106 59.2728 16.849C59.4206 16.7875 59.5543 16.6967 59.666 16.582C59.8853 16.3373 60 15.979 60 15.498V4.41181C60 3.94637 59.8933 3.58827 59.69 3.34407ZM57.1549 13.5989C56.9716 14.026 56.6688 14.3911 56.2831 14.6504C55.9217 14.8773 55.5028 14.9959 55.076 14.9922H55.0688C54.6398 14.994 54.2197 14.8694 53.8611 14.634C53.4738 14.3658 53.1713 13.9923 52.9894 13.5578C52.5713 12.4501 52.5656 11.2291 52.9732 10.1175C53.14 9.67005 53.4315 9.27969 53.8131 8.99261C54.1716 8.72919 54.6072 8.59165 55.0519 8.60139H55.076C55.5055 8.60183 55.9244 8.73558 56.2747 8.98418C56.6629 9.26405 56.9673 9.64472 57.1549 10.085C57.3861 10.631 57.4974 11.2203 57.4811 11.8131C57.5026 12.4249 57.3913 13.0341 57.1549 13.5989ZM49.3695 13.705C49.1944 13.558 48.9704 13.4823 48.7421 13.4928C48.5468 13.4818 48.3538 13.5394 48.1963 13.6554C47.8781 13.9492 47.6254 14.1848 47.4295 14.3566C47.222 14.5296 47.0043 14.6901 46.7777 14.8372C46.5571 14.9825 46.3153 15.0927 46.0609 15.1639C45.7928 15.2379 45.5156 15.2734 45.2375 15.2694C45.1749 15.271 45.1122 15.2682 45.05 15.2611C44.6806 15.2406 44.3221 15.1285 44.0068 14.9349C43.6229 14.7018 43.312 14.3659 43.1091 13.9653C42.8818 13.4925 42.7649 12.9743 42.7672 12.4497H47.6828C48.3423 12.4497 48.856 12.3513 49.2153 12.1718C49.5825 11.9765 49.7615 11.5689 49.7615 10.9412C49.7549 10.2366 49.5727 9.54479 49.2316 8.92824C48.8653 8.2553 48.3174 7.69878 47.6503 7.3221C46.9485 6.9065 46.1091 6.70214 45.1228 6.70214H45.0499C44.3708 6.70266 43.6973 6.82419 43.0609 7.06102C42.467 7.29079 41.93 7.6466 41.4868 8.10392C41.0581 8.57891 40.731 9.13655 40.5257 9.74257C40.2995 10.4092 40.1865 11.1091 40.1913 11.8131C40.1913 13.395 40.6397 14.634 41.5367 15.5547C42.384 16.4276 43.5584 16.884 45.0499 16.9324C45.1313 16.9401 45.2206 16.9401 45.3109 16.9401C45.9466 16.9516 46.5799 16.8583 47.1853 16.664C47.6713 16.5077 48.1286 16.2736 48.5394 15.9706C48.8589 15.7283 49.1319 15.43 49.345 15.0903C49.5024 14.8548 49.5953 14.582 49.6144 14.2993C49.6207 14.1882 49.6019 14.0772 49.5596 13.9743C49.5172 13.8715 49.4523 13.7794 49.3697 13.705H49.3695ZM43.5004 9.0987C43.6958 8.88673 43.9346 8.71945 44.2005 8.60832C44.4665 8.4972 44.7533 8.44484 45.0414 8.45484H45.0499C45.3434 8.44284 45.6362 8.49328 45.9088 8.60281C46.1814 8.71235 46.4277 8.87849 46.6313 9.09026C47.031 9.51477 47.2672 10.1586 47.3241 11.0226H42.7672C42.8481 10.1749 43.0934 9.53055 43.5004 9.0987ZM38.6833 13.4928C38.4853 13.4806 38.2893 13.5382 38.1293 13.6554C37.8783 13.894 37.6228 14.1278 37.3629 14.3566C37.1578 14.5295 36.9426 14.69 36.7184 14.8372C36.4949 14.9828 36.2503 15.0929 35.9932 15.1639C35.7251 15.2384 35.4478 15.2739 35.1696 15.2694C35.1072 15.271 35.0447 15.2682 34.9826 15.2611C34.6129 15.2405 34.2542 15.1284 33.9385 14.9349C33.5577 14.7012 33.2502 14.3652 33.051 13.9653C32.8163 13.4948 32.6959 12.9755 32.6995 12.4497H37.6235C38.1487 12.4718 38.6721 12.3769 39.1561 12.1718C39.5146 11.9765 39.6943 11.5689 39.6943 10.9412C39.6906 10.2372 39.5111 9.54531 39.1722 8.92824C38.8039 8.25702 38.2567 7.70105 37.5915 7.3221C36.8207 6.89089 35.9475 6.67664 35.0646 6.70214H34.9826C34.3037 6.70339 33.6303 6.8249 32.9937 7.06102C32.4011 7.28862 31.8664 7.64481 31.428 8.10392C30.9934 8.57599 30.6631 9.13433 30.4586 9.74257C30.2319 10.4091 30.1188 11.109 30.1239 11.8131C30.1239 13.395 30.5809 14.634 31.4774 15.5547C32.3252 16.4276 33.4913 16.884 34.9826 16.9324C35.0725 16.9401 35.1532 16.9401 35.2432 16.9401C35.879 16.9523 36.5124 16.859 37.1176 16.664C37.6034 16.508 38.0606 16.2738 38.471 15.9706C38.793 15.7305 39.0669 15.4319 39.2784 15.0903C39.4355 14.8546 39.5284 14.5819 39.5478 14.2993C39.5534 14.189 39.5352 14.0788 39.4943 13.9762C39.4535 13.8736 39.3909 13.7811 39.3109 13.705C39.1343 13.5606 38.9113 13.4853 38.6833 13.4928ZM33.4332 9.0987C33.6285 8.88664 33.8673 8.71931 34.1333 8.60817C34.3993 8.49704 34.6862 8.44473 34.9743 8.45484H34.9826C35.2762 8.44285 35.569 8.49329 35.8416 8.60282C36.1143 8.71236 36.3605 8.8785 36.5642 9.09026C36.9712 9.51477 37.1996 10.1586 37.2648 11.0226H32.6995C32.7901 10.1749 33.0348 9.53055 33.4332 9.0987ZM5.23682 15.2694V9.2701C5.40759 9.28572 5.57086 9.294 5.7421 9.294C6.52843 9.29694 7.3007 9.08564 7.976 8.68279V15.2694C7.976 15.832 7.8457 16.2475 7.59243 16.5253C7.4666 16.6622 7.31255 16.7702 7.14091 16.8418C6.96927 16.9135 6.78414 16.947 6.59829 16.9401C6.41413 16.9457 6.231 16.9107 6.06189 16.8375C5.89278 16.7644 5.74184 16.655 5.61977 16.517C5.36713 16.2395 5.23682 15.8236 5.23682 15.2694ZM28.9176 3.34407C28.8088 3.22155 28.674 3.12494 28.5231 3.0613C28.3721 2.99766 28.2088 2.96861 28.0452 2.97628C27.8768 2.96617 27.7086 2.99736 27.5551 3.06712C27.4015 3.13689 27.2674 3.24312 27.1643 3.37657C26.9534 3.63702 26.8543 4.02824 26.8543 4.54212V8.25954C26.4428 7.7899 25.9482 7.40013 25.3954 7.10977C25.0533 6.94491 24.6876 6.83482 24.3114 6.78354C24.063 6.74982 23.8127 6.73333 23.562 6.73416C22.3146 6.73416 21.2957 7.17476 20.5295 8.05517C19.7632 8.93605 19.3799 10.1613 19.3795 11.731C19.3752 12.4316 19.4712 13.1293 19.6648 13.8026C19.8438 14.4056 20.1344 14.9696 20.5215 15.4653C20.8821 15.9228 21.3386 16.2958 21.8589 16.5579C22.3786 16.8131 22.9506 16.9439 23.5296 16.9401C23.7919 16.941 24.0537 16.9167 24.3114 16.8677C24.4719 16.8418 24.6302 16.8033 24.7848 16.7526C25.1665 16.6228 25.5264 16.4362 25.8525 16.1992C26.2186 15.9196 26.5544 15.6026 26.8545 15.2531V15.498C26.8309 15.8829 26.95 16.263 27.189 16.5657C27.2976 16.6825 27.4289 16.7759 27.5749 16.8402C27.7208 16.9046 27.8783 16.9385 28.0378 16.9401C28.1972 16.9416 28.3554 16.9106 28.5025 16.8491C28.6496 16.7875 28.7827 16.6966 28.8935 16.582C29.1129 16.3373 29.219 15.979 29.219 15.498V4.41181C29.219 3.94637 29.122 3.58827 28.9176 3.34407ZM26.3901 13.5989C26.2067 14.0283 25.9007 14.394 25.5105 14.6504C25.152 14.8772 24.7356 14.9959 24.3114 14.9922H24.3036C23.8749 14.9939 23.4553 14.8693 23.0971 14.634C22.7074 14.3682 22.4041 13.9941 22.2248 13.5578C21.9991 13.0045 21.8909 12.4104 21.907 11.8131C21.8952 11.2343 21.9949 10.6586 22.2007 10.1175C22.3703 9.66946 22.6644 9.27916 23.0483 8.99261C23.404 8.72922 23.8371 8.59159 24.2795 8.60139H24.3114C24.7386 8.60072 25.1552 8.73466 25.5021 8.98418C25.8949 9.26116 26.2025 9.64247 26.3901 10.085C26.6174 10.6322 26.7285 11.2207 26.7163 11.8131C26.7337 12.4246 26.6226 13.033 26.3901 13.5989ZM11.9948 8.10392V8.41453C12.3791 7.88483 12.8741 7.44515 13.4454 7.12601C14.0102 6.84717 14.6334 6.7072 15.2631 6.71776C15.8827 6.70874 16.4944 6.85774 17.0405 7.1507C17.549 7.42421 17.9572 7.85246 18.206 8.37343C18.3765 8.68436 18.4873 9.02448 18.5326 9.37618C18.5871 9.82762 18.6115 10.2822 18.6055 10.7369V15.4088C18.6055 15.914 18.4832 16.2962 18.2546 16.5493C18.1436 16.6769 18.0055 16.7782 17.8504 16.8458C17.6954 16.9133 17.5272 16.9455 17.3581 16.9399C17.1858 16.9459 17.0144 16.9132 16.8565 16.8441C16.6985 16.7751 16.558 16.6715 16.4454 16.541C16.2085 16.2801 16.0951 15.8976 16.0951 15.4088V11.2258C16.0951 10.395 15.9807 9.75934 15.752 9.31884C15.5242 8.87918 15.0594 8.65857 14.3751 8.65857C13.9353 8.65857 13.5069 8.79836 13.1517 9.05777C12.7742 9.33646 12.49 9.72307 12.3366 10.1666C12.2143 10.5416 12.1569 11.2342 12.1569 12.2701V15.4088C12.1569 15.9219 12.0357 16.2962 11.7988 16.5579C11.6828 16.6831 11.5413 16.782 11.3839 16.8479C11.2265 16.9139 11.0567 16.9453 10.8861 16.9401C10.7162 16.9452 10.5473 16.9119 10.392 16.8428C10.2366 16.7738 10.0989 16.6706 9.98882 16.541C9.75259 16.2801 9.63807 15.8976 9.63807 15.4088V8.14501C9.63807 7.66442 9.74415 7.30569 9.95632 7.07711C10.0631 6.95703 10.1954 6.86241 10.3436 6.80022C10.4918 6.73803 10.652 6.70985 10.8125 6.71776C11.0214 6.7138 11.2273 6.76771 11.4075 6.87353C11.5948 6.98521 11.7451 7.14952 11.8398 7.346C11.9496 7.58318 12.0026 7.84267 11.9948 8.10392ZM5.25245 0.890164C6.94857 0.278797 8.88078 0.311294 10.3315 1.56668C10.601 1.81932 10.9102 2.13696 11.0325 2.51193C11.179 2.98472 10.5196 2.46256 10.4291 2.39819C9.9716 2.08587 9.47579 1.83376 8.9539 1.64808C6.10082 0.767671 3.40227 2.35773 1.72302 4.8271C1.04675 5.91605 0.530622 7.0966 0.190474 8.3325C0.159375 8.48431 0.110228 8.63186 0.0440787 8.772C-0.0295096 8.91184 0.0112686 8.39812 0.0112686 8.38125C0.0717963 7.86414 0.169966 7.35214 0.304997 6.84931C1.07932 4.1587 2.79169 1.91697 5.25276 0.89032L5.25245 0.890164Z" fill="#0071CE"/>
    <path fill-rule="evenodd" clip-rule="evenodd" d="M7.46209 7.56423C7.09773 7.74967 6.68656 7.82289 6.28059 7.77463C5.87461 7.72638 5.49207 7.55882 5.18132 7.29314C4.87058 7.02746 4.6456 6.6756 4.53483 6.28206C4.42406 5.88851 4.43249 5.47096 4.55903 5.0822C4.68558 4.69344 4.92457 4.35094 5.24577 4.09802C5.56698 3.84509 5.95597 3.69309 6.36357 3.66125C6.77116 3.62941 7.17904 3.71915 7.53562 3.91913C7.89221 4.1191 8.18149 4.42033 8.36687 4.78472C8.49075 5.02648 8.56561 5.29034 8.58716 5.56113C8.6087 5.83192 8.57651 6.10431 8.49243 6.36261C8.40834 6.62092 8.27403 6.86005 8.09721 7.06627C7.92039 7.27249 7.70454 7.44172 7.46209 7.56423Z" fill="#0071CE"/>
    </g>
    <defs>
    <clipPath id="clip0_1_2084">
    <rect width="60" height="16.4385" fill="white" transform="translate(0 0.495056)"/>
    </clipPath>
    </defs>
    </svg>
    