<svg width="100" height="24" viewBox="0 0 100 24" fill="none" xmlns="http://www.w3.org/2000/svg">
    <path d="M18.9052 10.3994C16.3308 9.75425 15.0406 9.43767 14.1505 8.54766C13.2605 7.65168 12.944 6.36744 12.2988 3.79299L11.3491 0L10.3994 3.79299C9.75426 6.36744 9.43768 7.65766 8.54767 8.54766C7.65169 9.43767 6.36745 9.75425 3.79299 10.3994L0 11.3491L3.79299 12.2988C6.36745 12.9439 7.65766 13.2605 8.54767 14.1505C9.43768 15.0465 9.75426 16.3308 10.3994 18.9052L11.3491 22.6982L12.2988 18.9052C12.944 16.3308 13.2605 15.0405 14.1505 14.1505C15.0465 13.2605 16.3308 12.9439 18.9052 12.2988L22.6982 11.3491L18.9052 10.3994Z" fill="#FF6224"/>
    <path d="M34.4746 19.0682C33.6735 19.0682 32.9258 18.9257 32.2315 18.6409C31.555 18.3383 31.0031 17.9021 30.5758 17.3324C30.1664 16.7449 29.9616 16.015 29.9616 15.1427C29.9616 13.8965 30.3978 12.8996 31.2701 12.1519C32.1602 11.4042 33.4687 11.0303 35.1956 11.0303H38.9341V10.6832C38.9341 9.89986 38.7116 9.34799 38.2665 9.02754C37.8393 8.7071 36.9669 8.54687 35.6495 8.54687C34.2075 8.54687 32.8189 8.7694 31.4838 9.21447V6.67761C32.0712 6.44618 32.7833 6.25925 33.6201 6.11683C34.4746 5.95661 35.4003 5.8765 36.3972 5.8765C38.3021 5.8765 39.7708 6.26815 40.8034 7.05146C41.8537 7.81697 42.3789 9.05424 42.3789 10.7633V18.8011H39.2546L39.0676 17.6529C38.5692 18.0979 37.955 18.4451 37.2251 18.6943C36.4952 18.9435 35.5783 19.0682 34.4746 19.0682ZM35.4626 16.6915C36.2637 16.6915 36.958 16.558 37.5455 16.291C38.133 16.0239 38.5959 15.6857 38.9341 15.2762V13.2734H35.2757C33.8693 13.2734 33.1661 13.852 33.1661 15.0092C33.1661 16.1307 33.9316 16.6915 35.4626 16.6915Z" fill="#2F3941"/>
    <path d="M50.8897 23.501C49.9461 23.501 48.9759 23.4387 47.979 23.3141C46.9998 23.1894 46.172 23.0114 45.4955 22.78V20.0829C46.2076 20.3143 47.0443 20.4924 48.0057 20.617C48.967 20.7594 49.866 20.8306 50.7027 20.8306C51.9311 20.8306 52.8212 20.7594 53.3731 20.617C53.925 20.4924 54.2009 20.2609 54.2009 19.9227C54.2009 19.6378 54.0763 19.442 53.8271 19.3352C53.5957 19.2284 53.0972 19.175 52.3317 19.175H48.8869C46.626 19.175 45.4955 18.3383 45.4955 16.6648C45.4955 16.1485 45.6379 15.6768 45.9228 15.2495C46.2076 14.8223 46.6616 14.484 47.2847 14.2348C45.8427 13.5049 45.1217 12.2765 45.1217 10.5497C45.1217 8.91182 45.629 7.72796 46.6438 6.99805C47.6585 6.25035 49.1628 5.8765 51.1567 5.8765C51.5662 5.8765 52.0112 5.9121 52.4919 5.98331C52.9904 6.03672 53.3642 6.09013 53.6135 6.14353H58.3667L58.2866 8.41335H56.2838C56.8357 8.92963 57.1117 9.65063 57.1117 10.5764C57.1117 11.8759 56.7022 12.9174 55.8833 13.7007C55.0644 14.4662 53.8538 14.849 52.2516 14.849C51.9667 14.849 51.6908 14.8401 51.4238 14.8223C51.1745 14.7867 50.9164 14.751 50.6493 14.7154C50.1153 14.7867 49.6613 14.9113 49.2874 15.0893C48.9314 15.2673 48.7534 15.5077 48.7534 15.8103C48.7534 16.2198 49.1183 16.4245 49.8482 16.4245H53.4265C54.7083 16.4245 55.6964 16.7182 56.3907 17.3057C57.085 17.8754 57.4321 18.7121 57.4321 19.8159C57.4321 21.062 56.8713 21.9878 55.7498 22.5931C54.6282 23.1983 53.0082 23.501 50.8897 23.501ZM51.1834 12.8195C52.2516 12.8195 52.9904 12.6415 53.3998 12.2854C53.8271 11.9115 54.0407 11.2885 54.0407 10.4161C54.0407 9.54381 53.8271 8.91183 53.3998 8.52017C52.9904 8.12851 52.2516 7.93269 51.1834 7.93269C50.1687 7.93269 49.4388 8.12851 48.9937 8.52017C48.5486 8.89402 48.3261 9.52601 48.3261 10.4161C48.3261 11.2351 48.5308 11.8403 48.9403 12.232C49.3676 12.6236 50.1153 12.8195 51.1834 12.8195Z" fill="#2F3941"/>
    <path d="M64.3357 19.0682C63.1073 19.0682 62.2082 18.7833 61.6386 18.2136C61.0867 17.644 60.8107 16.736 60.8107 15.4899V0.802779H64.4158V15.1961C64.4158 15.6412 64.5048 15.9527 64.6828 16.1307C64.8608 16.291 65.119 16.3711 65.4572 16.3711C65.9201 16.3711 66.3384 16.3088 66.7123 16.1842V18.6676C66.0358 18.9346 65.2436 19.0682 64.3357 19.0682Z" fill="#2F3941"/>
    <path d="M68.974 3.8203V0.989704H72.8994V3.8203H68.974ZM69.2677 18.8011V8.81391H67.3717L67.6922 6.14353H72.8727V18.8011H69.2677Z" fill="#2F3941"/>
    <path d="M76.2092 18.8011V6.14353H79.5472L79.6807 7.3452C80.197 6.95355 80.8468 6.6153 81.6301 6.33046C82.4312 6.02782 83.2679 5.8765 84.1403 5.8765C85.8137 5.8765 87.0332 6.26815 87.7987 7.05146C88.5642 7.83477 88.9469 9.04534 88.9469 10.6832V18.8011H85.3419V10.8701C85.3419 10.0156 85.1639 9.41029 84.8079 9.05424C84.4696 8.69819 83.8287 8.52017 82.8852 8.52017C82.3333 8.52017 81.7725 8.64479 81.2028 8.89402C80.651 9.14326 80.1881 9.4548 79.8142 9.82865V18.8011H76.2092Z" fill="#2F3941"/>
    <path d="M97.1694 19.0682C95.7096 19.0682 94.6236 18.6854 93.9115 17.9199C93.2172 17.1544 92.8701 16.1129 92.8701 14.7956V8.92073H91.0809V6.14353H92.8701V3.41975L96.4751 2.3516V6.14353H99.6796L99.4659 8.92073H96.4751V14.5552C96.4751 15.2495 96.6353 15.7302 96.9558 15.9972C97.2762 16.2465 97.7747 16.3711 98.4512 16.3711C98.9497 16.3711 99.4659 16.2821 100 16.104V18.5875C99.6083 18.7477 99.1811 18.8634 98.7182 18.9346C98.2553 19.0237 97.7391 19.0682 97.1694 19.0682Z" fill="#2F3941"/>
    </svg>
    