<svg width="16" height="16" viewBox="0 0 16 16" fill="none" xmlns="http://www.w3.org/2000/svg">
    <path fill-rule="evenodd" clip-rule="evenodd" d="M8 0C3.58667 0 0 3.58667 0 8C0 12.4133 3.58667 16 8 16C12.4133 16 16 12.4133 16 8C16 3.58667 12.4133 0 8 0ZM12.5867 6.58667L7.92001 11.2533C7.76001 11.4133 7.54667 11.4933 7.33334 11.4933C7.12001 11.4933 6.90667 11.4133 6.74667 11.2533L4.08001 8.58667C3.76001 8.26667 3.76001 7.73334 4.08001 7.41334C4.40001 7.09334 4.93334 7.09334 5.25334 7.41334L7.33334 9.49334L11.4133 5.41334C11.7333 5.09334 12.2667 5.09334 12.5867 5.41334C12.92 5.73334 12.92 6.26667 12.5867 6.58667V6.58667Z" fill="#228F67"/>
    </svg>
    